<svg width="718" height="489" viewBox="0 0 718 489" fill="none" xmlns="http://www.w3.org/2000/svg">
<path d="M717 249.724C714.298 244.318 706.192 233.507 694.034 226.75C681.876 219.992 675.121 221.344 653.506 217.29C631.891 213.235 603.521 198.369 584.608 194.315C565.694 190.261 529.219 195.667 503.551 194.315C477.883 192.964 457.619 187.558 419.792 187.558C395.799 187.558 365.692 189.911 346.842 190.264C341.917 190.356 337.385 188.912 333.332 187.565C317.121 175.4 276.322 155.934 269.838 153.772C261.732 151.069 252.275 149.718 254.977 156.475C257.679 163.232 267.136 164.584 263.083 176.747C259.03 188.909 246.872 184.855 245.521 191.612C244.17 198.369 250.925 198.369 267.136 198.369C280.105 198.369 318.922 192.516 336.034 188.912C315.77 188.912 272.54 192.964 227.958 187.558C183.377 182.152 160.411 157.827 146.902 144.312C133.392 130.798 134.743 113.229 157.709 102.418C176.082 93.7686 185.089 80.908 182.817 76.5943C181.5 74.5 172.55 80.9189 158.5 82C140.938 83.3514 146.902 72.6863 118.532 79.4434C90.1623 86.2006 91.5132 103.769 92.8642 114.581C93.9449 123.23 111.327 135.303 119.883 140.258C119.883 133.501 100.97 103.769 76.6528 74.0377C52.3358 44.3062 29.3698 44.3062 14.5094 21.3318C8.74192 12.4152 5.21285 6.34913 1 1C3.25157 4.15334 4.78264 21.8724 9.10566 51.0633C14.5094 87.552 88.8113 137.555 110.426 153.772C132.042 169.989 127.989 184.855 157.709 226.75C187.43 268.644 259.03 310.538 295.506 314.593C331.981 318.647 364.404 305.133 387.37 299.727C410.336 294.321 463.023 283.51 450.864 307.836C438.706 332.161 363.053 384.267 336.034 390.273C309.015 396.279 252.275 392.976 246.872 390.273C241.468 387.57 234.713 379.461 226.608 372.704C218.502 365.947 214.449 363.244 221.204 359.19C227.958 355.136 261.732 345.676 280.645 340.27C299.559 334.864 352.245 303.781 371.159 287.564C390.072 271.347 426.547 261.887 442.759 261.887C458.97 261.887 491.392 267.293 503.551 265.941C514.359 264.59 525.166 256.481 523.815 247.021C523.388 244.03 519.762 238.912 514.359 241.615C508.955 244.318 508.955 253.778 514.359 256.481C519.762 259.184 525.166 253.778 535.974 249.724C546.781 245.67 611.626 240.264 639.996 240.264C662.692 240.264 700.789 249.276 715.649 252.43C715.649 252.43 671.068 229.452 639.996 230.804C594.064 234.858 564.343 232.155 515.709 269.995C467.076 307.836 469.777 307.836 469.777 314.593C469.777 321.35 572.449 265.941 581.906 261.887C591.362 257.833 600.819 245.67 611.626 249.724C622.434 253.778 591.362 298.375 544.079 307.836C496.796 317.296 480.585 315.944 453.566 326.756C426.547 337.567 440.057 355.136 450.864 355.136C461.672 355.136 523.815 340.27 561.642 317.296C599.468 294.321 612.977 288.915 626.487 275.401C639.996 261.887 665.664 242.967 672.419 252.427C679.174 261.887 641.347 291.618 626.487 299.727C611.626 307.836 590.011 314.593 577.853 317.296C565.694 319.998 522.464 324.053 503.551 324.053C484.638 324.053 433.302 336.216 426.547 355.136C419.792 374.056 513.008 353.784 525.166 349.73C537.325 345.676 577.853 332.161 608.925 317.296C639.996 302.43 687.279 269.995 694.034 265.941C700.789 261.887 708.894 251.075 712.947 256.481C717 261.887 661.611 307.836 644.049 317.296C626.487 326.756 548.132 363.244 531.921 367.299C515.709 371.353 488.691 384.867 475.181 384.867C461.672 384.867 450.864 386.219 450.864 382.164C450.864 378.11 473.83 370.001 488.691 367.299C503.551 364.596 517.06 364.395 519.762 367.299C522.464 370.202 507.604 421.356 498.147 440.276C488.691 459.196 454.917 483.522 448.162 486.225C441.408 488.928 437.355 488.928 436.004 483.522C434.653 478.116 453.566 453.79 453.566 434.87C453.566 415.95 449.513 398.382 444.109 390.273C439.786 383.786 432.401 372.254 429.249 367.299" stroke="black"/>
</svg>
